# xmcd
#
# Track frame offsets: 
#        150
#        14187
#        29462
#        41550
#        59760
#        77430
#        88212
#        106280
#        124855
#        142960
#        167760
#        193997
#        218597
#        235067
#        256955
#        274980
#
# Disc length: 3902 seconds
#
# Revision: 2
# Processed by: cddbd v1.5.2PL0 Copyright (c) Steve Scherf et al.
# Submitted via: ExactAudioCopy v1.3
#
DISCID=ea0f3c10
DTITLE=貴族唱片 - New Age Heaven 美聲大地
DYEAR=1900
DGENRE=New Age
TTITLE0=Le Papillon 蝴蝶
TTITLE1=Les Cite's Des Coeurs 心之城
TTITLE2=Stand By Your Man 支持你的愛人
TTITLE3=Radical Seed(Radio Mix) 根生的種子
TTITLE4=Cucurrucucu Paloma 鴿子歌
TTITLE5=In A Glade 林地之間
TTITLE6=Blue Light 藍光
TTITLE7=I Saw It In Your Eyes 在你眼裡
TTITLE8=蕭邦離別曲
TTITLE9=Into The West 西行
TTITLE10=Innamorata Di Te - Tina Zanotto 深陷愛河
TTITLE11=THE MO RUN AIR A GHILLE(i Love THE Lad) 鍾愛大地
TTITLE12=Tiden Renner 時光流逝
TTITLE13=Pachael's Canon 卡農
TTITLE14=Serenade 舒伯特小夜曲
TTITLE15=Sweet Lullaby 甜蜜的搖籃曲
EXTD=
EXTT0=
EXTT1=
EXTT2=
EXTT3=
EXTT4=
EXTT5=
EXTT6=
EXTT7=
EXTT8=
EXTT9=
EXTT10=
EXTT11=
EXTT12=
EXTT13=
EXTT14=
EXTT15=
PLAYORDER=
